<svg width="115" height="43" viewBox="0 0 115 43" fill="none" xmlns="http://www.w3.org/2000/svg">
<path d="M103.343 13.1001L111.686 21.8604L103.343 30.6207" stroke="#006B99" stroke-width="1.6"/>
<path d="M3.12548 28V15.6364H4.62264V26.6719H10.3698V28H3.12548ZM16.5826 28.1932C15.6891 28.1932 14.9184 27.996 14.2704 27.6016C13.6265 27.2031 13.1295 26.6477 12.7793 25.9354C12.4332 25.219 12.2601 24.3859 12.2601 23.4361C12.2601 22.4863 12.4332 21.6491 12.7793 20.9247C13.1295 20.1963 13.6164 19.6288 14.2403 19.2223C14.8681 18.8118 15.6006 18.6065 16.4377 18.6065C16.9206 18.6065 17.3976 18.687 17.8684 18.848C18.3393 19.009 18.7679 19.2706 19.1543 19.6328C19.5407 19.991 19.8486 20.4659 20.078 21.0575C20.3074 21.6491 20.4221 22.3776 20.4221 23.2429V23.8466H13.2743V22.6151H18.9732C18.9732 22.0919 18.8686 21.625 18.6593 21.2145C18.454 20.804 18.1602 20.48 17.7779 20.2425C17.3996 20.0051 16.9528 19.8864 16.4377 19.8864C15.8702 19.8864 15.3792 20.0272 14.9647 20.3089C14.5542 20.5866 14.2382 20.9489 14.0169 21.3956C13.7955 21.8423 13.6849 22.3213 13.6849 22.8324V23.6534C13.6849 24.3537 13.8056 24.9473 14.0471 25.4343C14.2926 25.9173 14.6327 26.2855 15.0673 26.5391C15.502 26.7886 16.0071 26.9134 16.5826 26.9134C16.9569 26.9134 17.2949 26.861 17.5968 26.7564C17.9027 26.6477 18.1663 26.4867 18.3876 26.2734C18.609 26.0561 18.78 25.7865 18.9008 25.4645L20.2772 25.8509C20.1323 26.3177 19.8888 26.7282 19.5467 27.0824C19.2046 27.4325 18.782 27.7062 18.279 27.9034C17.7759 28.0966 17.2104 28.1932 16.5826 28.1932ZM25.518 28.2173C24.9304 28.2173 24.3972 28.1067 23.9182 27.8853C23.4393 27.6599 23.059 27.3359 22.7773 26.9134C22.4955 26.4867 22.3547 25.9716 22.3547 25.3679C22.3547 24.8366 22.4593 24.406 22.6686 24.076C22.8779 23.742 23.1576 23.4804 23.5077 23.2912C23.8579 23.102 24.2442 22.9612 24.6668 22.8686C25.0934 22.772 25.522 22.6955 25.9527 22.6392C26.5161 22.5668 26.9729 22.5124 27.3231 22.4762C27.6772 22.436 27.9348 22.3696 28.0958 22.277C28.2608 22.1844 28.3433 22.0234 28.3433 21.794V21.7457C28.3433 21.1501 28.1803 20.6873 27.8543 20.3572C27.5323 20.0272 27.0434 19.8622 26.3873 19.8622C25.7072 19.8622 25.1739 20.0111 24.7876 20.3089C24.4012 20.6068 24.1295 20.9247 23.9726 21.2628L22.6203 20.7798C22.8618 20.2164 23.1837 19.7777 23.5862 19.4638C23.9927 19.1458 24.4354 18.9245 24.9143 18.7997C25.3973 18.6709 25.8722 18.6065 26.339 18.6065C26.6369 18.6065 26.979 18.6428 27.3653 18.7152C27.7557 18.7836 28.132 18.9265 28.4942 19.1438C28.8605 19.3612 29.1643 19.6892 29.4058 20.1278C29.6473 20.5665 29.768 21.1541 29.768 21.8906V28H28.3433V26.7443H28.2709C28.1743 26.9455 28.0133 27.1609 27.7879 27.3903C27.5625 27.6197 27.2627 27.8149 26.8884 27.9759C26.5141 28.1368 26.0573 28.2173 25.518 28.2173ZM25.7353 26.9375C26.2988 26.9375 26.7737 26.8268 27.1601 26.6055C27.5505 26.3841 27.8443 26.0984 28.0415 25.7482C28.2427 25.3981 28.3433 25.0298 28.3433 24.6435V23.3395C28.2829 23.4119 28.1501 23.4783 27.9449 23.5387C27.7436 23.5951 27.5102 23.6454 27.2446 23.6896C26.983 23.7299 26.7274 23.7661 26.4779 23.7983C26.2324 23.8265 26.0332 23.8506 25.8802 23.8707C25.51 23.919 25.1639 23.9975 24.8419 24.1062C24.5239 24.2108 24.2664 24.3698 24.0692 24.5831C23.876 24.7924 23.7794 25.0781 23.7794 25.4403C23.7794 25.9354 23.9625 26.3097 24.3287 26.5632C24.699 26.8127 25.1679 26.9375 25.7353 26.9375ZM32.5684 28V18.7273H33.9448V20.1278H34.0414C34.2105 19.669 34.5163 19.2968 34.9591 19.011C35.4018 18.7253 35.9008 18.5824 36.4562 18.5824C36.5609 18.5824 36.6917 18.5844 36.8486 18.5884C37.0056 18.5924 37.1243 18.5985 37.2048 18.6065V20.0554C37.1565 20.0433 37.0458 20.0252 36.8728 20.0011C36.7037 19.9729 36.5246 19.9588 36.3355 19.9588C35.8847 19.9588 35.4823 20.0534 35.1281 20.2425C34.7779 20.4277 34.5002 20.6853 34.295 21.0153C34.0938 21.3413 33.9931 21.7135 33.9931 22.1321V28H32.5684ZM40.5183 22.4219V28H39.0936V18.7273H40.47V20.1761H40.5908C40.8081 19.7053 41.1381 19.3269 41.5808 19.0412C42.0235 18.7514 42.595 18.6065 43.2953 18.6065C43.9232 18.6065 44.4725 18.7353 44.9434 18.9929C45.4143 19.2464 45.7805 19.6328 46.0421 20.152C46.3037 20.6671 46.4345 21.3191 46.4345 22.108V28H45.0098V22.2045C45.0098 21.4761 44.8207 20.9086 44.4423 20.5021C44.064 20.0916 43.5449 19.8864 42.8848 19.8864C42.43 19.8864 42.0235 19.985 41.6654 20.1822C41.3112 20.3794 41.0315 20.6671 40.8262 21.0455C40.621 21.4238 40.5183 21.8826 40.5183 22.4219ZM54.2192 28V18.7273H55.5956V20.1761H55.7164C55.9096 19.6811 56.2215 19.2968 56.6521 19.0231C57.0827 18.7454 57.5999 18.6065 58.2036 18.6065C58.8153 18.6065 59.3244 18.7454 59.7309 19.0231C60.1414 19.2968 60.4614 19.6811 60.6908 20.1761H60.7874C61.0248 19.6972 61.381 19.3169 61.8559 19.0352C62.3308 18.7494 62.9003 18.6065 63.5644 18.6065C64.3935 18.6065 65.0716 18.8661 65.5988 19.3853C66.1261 19.9004 66.3897 20.7034 66.3897 21.794V28H64.9649V21.794C64.9649 21.1098 64.7778 20.6209 64.4035 20.3271C64.0292 20.0333 63.5885 19.8864 63.0814 19.8864C62.4294 19.8864 61.9243 20.0836 61.5662 20.478C61.208 20.8684 61.0289 21.3634 61.0289 21.9631V28H59.58V21.6491C59.58 21.1219 59.409 20.6973 59.0669 20.3754C58.7248 20.0494 58.2841 19.8864 57.7448 19.8864C57.3745 19.8864 57.0284 19.985 56.7064 20.1822C56.3885 20.3794 56.1309 20.6531 55.9337 21.0032C55.7405 21.3493 55.6439 21.7498 55.6439 22.2045V28H54.2192ZM72.9616 28.1932C72.1245 28.1932 71.39 27.994 70.7582 27.5955C70.1303 27.1971 69.6393 26.6397 69.2852 25.9233C68.935 25.2069 68.7599 24.3698 68.7599 23.4119C68.7599 22.446 68.935 21.6029 69.2852 20.8825C69.6393 20.162 70.1303 19.6026 70.7582 19.2042C71.39 18.8058 72.1245 18.6065 72.9616 18.6065C73.7988 18.6065 74.5313 18.8058 75.1591 19.2042C75.791 19.6026 76.282 20.162 76.6321 20.8825C76.9863 21.6029 77.1634 22.446 77.1634 23.4119C77.1634 24.3698 76.9863 25.2069 76.6321 25.9233C76.282 26.6397 75.791 27.1971 75.1591 27.5955C74.5313 27.994 73.7988 28.1932 72.9616 28.1932ZM72.9616 26.9134C73.5975 26.9134 74.1207 26.7504 74.5312 26.4244C74.9418 26.0984 75.2456 25.6697 75.4428 25.1385C75.64 24.6072 75.7386 24.0317 75.7386 23.4119C75.7386 22.7921 75.64 22.2146 75.4428 21.6793C75.2456 21.1441 74.9418 20.7114 74.5312 20.3814C74.1207 20.0514 73.5975 19.8864 72.9616 19.8864C72.3258 19.8864 71.8026 20.0514 71.392 20.3814C70.9815 20.7114 70.6777 21.1441 70.4805 21.6793C70.2833 22.2146 70.1847 22.7921 70.1847 23.4119C70.1847 24.0317 70.2833 24.6072 70.4805 25.1385C70.6777 25.6697 70.9815 26.0984 71.392 26.4244C71.8026 26.7504 72.3258 26.9134 72.9616 26.9134ZM79.5382 28V18.7273H80.9146V20.1278H81.0112C81.1802 19.669 81.4861 19.2968 81.9288 19.011C82.3715 18.7253 82.8705 18.5824 83.4259 18.5824C83.5306 18.5824 83.6614 18.5844 83.8183 18.5884C83.9753 18.5924 84.094 18.5985 84.1745 18.6065V20.0554C84.1262 20.0433 84.0155 20.0252 83.8425 20.0011C83.6735 19.9729 83.4944 19.9588 83.3052 19.9588C82.8544 19.9588 82.452 20.0534 82.0978 20.2425C81.7477 20.4277 81.47 20.6853 81.2647 21.0153C81.0635 21.3413 80.9629 21.7135 80.9629 22.1321V28H79.5382ZM89.6689 28.1932C88.7754 28.1932 88.0047 27.996 87.3568 27.6016C86.7128 27.2031 86.2158 26.6477 85.8656 25.9354C85.5195 25.219 85.3465 24.3859 85.3465 23.4361C85.3465 22.4863 85.5195 21.6491 85.8656 20.9247C86.2158 20.1963 86.7028 19.6288 87.3266 19.2223C87.9544 18.8118 88.6869 18.6065 89.524 18.6065C90.007 18.6065 90.4839 18.687 90.9548 18.848C91.4257 19.009 91.8543 19.2706 92.2406 19.6328C92.627 19.991 92.9349 20.4659 93.1643 21.0575C93.3937 21.6491 93.5084 22.3776 93.5084 23.2429V23.8466H86.3607V22.6151H92.0595C92.0595 22.0919 91.9549 21.625 91.7456 21.2145C91.5404 20.804 91.2466 20.48 90.8642 20.2425C90.4859 20.0051 90.0392 19.8864 89.524 19.8864C88.9566 19.8864 88.4655 20.0272 88.051 20.3089C87.6405 20.5866 87.3246 20.9489 87.1032 21.3956C86.8819 21.8423 86.7712 22.3213 86.7712 22.8324V23.6534C86.7712 24.3537 86.8919 24.9473 87.1334 25.4343C87.3789 25.9173 87.719 26.2855 88.1536 26.5391C88.5883 26.7886 89.0934 26.9134 89.6689 26.9134C90.0432 26.9134 90.3813 26.861 90.6831 26.7564C90.989 26.6477 91.2526 26.4867 91.474 26.2734C91.6953 26.0561 91.8664 25.7865 91.9871 25.4645L93.3635 25.8509C93.2186 26.3177 92.9751 26.7282 92.633 27.0824C92.291 27.4325 91.8684 27.7062 91.3653 27.9034C90.8622 28.0966 90.2968 28.1932 89.6689 28.1932Z" fill="#0070A0"/>
</svg>
